PathFileType	4	(X/Y/Z)	56_2_110_p1_0-299_filt_butterworth.trc
DataRate	CameraRate	NumFrames	NumMarkers	Units	OrigDataRate	OrigDataStartFrame	OrigNumFrames
54.0	54.0	5	27	m	54.0	74	299
Frame#	Time	RHip			RKnee			RAnkle			RBigToe			RSmallToe			RHeel			LHip			LKnee			LAnkle			LBigToe			LSmallToe			LHeel			Neck			Head			Nose			RShoulder			RElbow			RWrist			RThumb			RIndex			RPinky			LShoulder			LElbow			LWrist			LThumb			LIndex			LPinky			
		X1	Y1	Z1	X2	Y2	Z2	X3	Y3	Z3	X4	Y4	Z4	X5	Y5	Z5	X6	Y6	Z6	X7	Y7	Z7	X8	Y8	Z8	X9	Y9	Z9	X10	Y10	Z10	X11	Y11	Z11	X12	Y12	Z12	X13	Y13	Z13	X14	Y14	Z14	X15	Y15	Z15	X16	Y16	Z16	X17	Y17	Z17	X18	Y18	Z18	X19	Y19	Z19	X20	Y20	Z20	X21	Y21	Z21	X22	Y22	Z22	X23	Y23	Z23	X24	Y24	Z24	X25	Y25	Z25	X26	Y26	Z26	X27	Y27	Z27	
74	1.3703703703703705	0.4706551304101425	0.7067170447237522	0.32035325428747874	0.4829886497784446	0.8242744180873568	0.6659633805936545	0.5107377489923596	1.0475481742646706	1.0595556801359456	0.42807248354636457	0.8990849727832402	1.1530229619544294	0.5089157475560772	0.8911740136892297	1.154465104358995	0.5050005444946075	1.1397169748582345	1.0954432286661546	0.2879670181040796	0.7993784871002089	0.29199962537193197	0.30713759848571726	0.9377834970821962	0.6532604304471282	0.3240004577597287	1.0891451787478519	1.0107382778611902	0.2563356179355617	0.9049609110383002	1.1209548426483136	0.21815592346104815	0.9799467675047372	1.1118040489587373	0.36279216821588306	1.1692676377433466	1.0611008889098206	0.34013128919393865	0.5059939607151446	-0.19660438107125885	0.3098895932069623	0.3844441730379562	-0.41496718154468637	0.2602266939156249	0.3659819474459776	-0.29272699339563446	0.4767954048972174	0.4863693538554956	-0.09175902616690719	0.5341700720358068	0.5874202395839895	0.17455310928391923	0.5197863920944347	0.6165607153934579	0.4187894747759333	0.46837650354224597	0.6328755335815808	0.5213469158520869	0.49100809781308885	0.6655150817435302	0.5479657934129057	0.5303363351222956	0.6812718152008068	0.5300438005369243	0.22145484657397735	0.6474954858515465	-0.1705750944985636	0.1035956713077043	0.5343825750569541	0.06099857822587571	0.20560592586739937	0.4065843257650597	-0.09417953666834589	0.2798122410270119	0.3971093624792057	-0.17570071879279645	0.24568789032164953	0.35830805244700226	-0.19615736903677206	0.20834124430781	0.3254346600475049	-0.12050726772156715
75	1.3888888888888888	0.4709548029864617	0.706790472211781	0.3206085540473481	0.4861304490537316	0.8265023755604299	0.6631913680631968	0.5096146250604527	1.0451321037198045	1.0551859239760382	0.4275064528912025	0.8981105043105577	1.1512831098821776	0.5088198895961662	0.89414029932479	1.1554663731884987	0.5041795030150145	1.1393012187264686	1.0948944326951706	0.28799938146556386	0.8035169490540581	0.2920357127187035	0.307121579099038	0.9378041848670868	0.6507850561385912	0.32418621168610234	1.0889727506373945	1.010188276507057	0.2565176103342215	0.9049757567763297	1.1214695239421557	0.21864615817254818	0.9831183037328579	1.1119878384130906	0.3628773064682159	1.1685977213627807	1.0592555632491276	0.3426301370306245	0.5065454664657207	-0.19948722497669427	0.31085212553671965	0.3844696455277135	-0.4167213603783178	0.26020560140571175	0.36768439016597076	-0.29542432034203353	0.4779387570884983	0.4859890585930239	-0.0935143448118367	0.5343369225683252	0.5873904889623125	0.16968265799302218	0.5199235068735177	0.610883943842865	0.41657168716044296	0.47166180621758563	0.6366702990764448	0.5203793439064035	0.4937419393477095	0.6666990996781714	0.5420950455050371	0.5320428798165912	0.6791573048725943	0.526400528064936	0.22152116260023524	0.649385005992448	-0.17023292588743963	0.10341108572624166	0.5386729726653549	0.06372564692377872	0.20830226823995038	0.41505308263603113	-0.08765083042211114	0.2819637266825783	0.3998250124956314	-0.17068681533996463	0.25076527256347225	0.3647692719672021	-0.19365650565407322	0.21020771687644849	0.32731408466707657	-0.11846170283471319
76	1.4074074074074074	0.4712927264065231	0.7068876835087614	0.32155333296330246	0.48649427203755174	0.8298524277269348	0.6607739325681427	0.509426113644394	1.0446880502999039	1.0532178541328883	0.4270735023306441	0.8975013362290593	1.150179124262165	0.5085101542047823	0.8940890796492742	1.1550955760632011	0.5042847234815365	1.139506886812161	1.0952599797871292	0.28798808047997115	0.8093799860849507	0.2920634908413777	0.30723184246200913	0.9372606428097937	0.6501799361943277	0.32405880997206227	1.0887197934998964	1.0101638780068527	0.2566868684153918	0.904851056860452	1.1223504147607852	0.22009758395560405	0.9848061933940406	1.1121986810933246	0.36280996336895094	1.1681549006640497	1.0589767375568915	0.34430892599733437	0.5061269500537318	-0.2036580039687302	0.30976614837417765	0.3819274743341663	-0.4173856179288516	0.26007279430016245	0.36883842574752657	-0.29918744970105476	0.4781404148952852	0.4851984045117201	-0.09620403210614692	0.5359953412820221	0.5883717102373827	0.16461358927769099	0.5190587907397853	0.6043745267537926	0.41428841019706614	0.473591789660583	0.638803417670984	0.5193644501180215	0.4956600593397724	0.6673515498723218	0.537859604591276	0.5334801326921386	0.6772785418731349	0.5233784370249078	0.22169468764289393	0.6496028008271365	-0.16981080823538952	0.10332913474220887	0.54143754578784	0.06525018619973957	0.20977555964458075	0.42402837992538367	-0.0811876590925247	0.28152403659334035	0.39999634074230167	-0.16293450250882427	0.2527809874016959	0.36753297556452613	-0.189698549689876	0.21108473966539865	0.3329366024066037	-0.11651126736585196
77	1.4259259259259258	0.4715498740702621	0.7068648463804796	0.32175134513270415	0.4870625446140878	0.8383242007396237	0.6603231376401679	0.5104314870281909	1.0485063317983554	1.0549628636013477	0.426928845965454	0.8974643611393603	1.1499524607927305	0.5076116076005305	0.889765124934513	1.1536951532428261	0.5050022772404589	1.1403871466065267	1.0959770059408995	0.28799277681622587	0.8136539464292533	0.2920529552020636	0.30759857041658023	0.9379938823259037	0.6518180073833945	0.3238457136294055	1.0885044383791904	1.0103110524806374	0.2568031678330009	0.9044579092272703	1.1225008324936725	0.2220005528360944	0.9851514879121896	1.1123863783276315	0.36260476757219195	1.1677402971524116	1.0593067663922278	0.3445854721413263	0.5044638897458043	-0.2092540075444707	0.3107991276221253	0.38206287595490895	-0.41904295987001267	0.25999861176010514	0.3684824356781935	-0.3037689646922069	0.47787458241649095	0.48416382530778995	-0.09945297458521427	0.5385600878941831	0.5906397171994636	0.16075602314349868	0.5179475259064814	0.5975601135332719	0.4120094226120912	0.4742844951585014	0.6392096074805846	0.5184599798333616	0.49645041278294866	0.6672790550479941	0.5351214223180965	0.5342759454731093	0.6764151147221538	0.5217934780796041	0.22185072621631077	0.649218089379982	-0.1707343963095833	0.10373329149262661	0.546285615210418	0.0665808945520851	0.21168676349008173	0.432366641191465	-0.07485387517100575	0.2823434462220161	0.4016034822394541	-0.15584889825903597	0.25658725380406255	0.37004896667810716	-0.1864472539455635	0.21271423180108245	0.3408365087351527	-0.11614288344500981
78	1.4444444444444444	0.4716369355652392	0.707053945568634	0.3206895795594472	0.48986554253613745	0.8489492288884086	0.6614734455941017	0.512188560166715	1.0569060986610515	1.0591458436087648	0.4270112086208583	0.8977493948052693	1.150176685433607	0.5054544711309169	0.8823601425212466	1.152635512735287	0.5068036522950082	1.143012829990568	1.0969103112707326	0.2880472028473582	0.814989763602949	0.2919591787476365	0.308061966777856	0.9399054822988185	0.6548850177217417	0.32380440908431407	1.0885229684280318	1.0104347271942329	0.2567639163302825	0.9035703881655851	1.120948541440879	0.22325675878623724	0.9851208632763127	1.1124801548385266	0.362498634480638	1.1675028829781304	1.0595241863626563	0.34396747133544214	0.5037381905356608	-0.2155706242433338	0.3152626190604416	0.38680712882477253	-0.42197362743282574	0.2604665306518665	0.36729414114572834	-0.3080748501468019	0.47757524170452637	0.4831857846977399	-0.10288872158761085	0.540506624447609	0.5925223162868813	0.15818983228033565	0.5170676308669458	0.592574371596625	0.41009003163067037	0.47435373580883533	0.6388849833121721	0.5176605362827499	0.49665345116500287	0.6670412622729834	0.5325905600916598	0.534440953102419	0.6762690165718572	0.5214119568133337	0.22131235814644074	0.6474902236026414	-0.17264342059190105	0.10517248080239608	0.554407358391907	0.06892772735984583	0.21417287744130353	0.4382011864950796	-0.06912765807401908	0.2852716889672566	0.4070722173578743	-0.15222593116881852	0.2651169833198551	0.3761422919706682	-0.1846037903237418	0.21536582261023773	0.34650197007316713	-0.11673738360841479
